# xmcd CD database file
# Copyright (C) 1993-1998 Ti Kan
#
# Track frame offsets:
#	150
#	11997
#	22259
#	38473
#	49290
#	67184
#	73456
#	94103
#	107795
#	118004
#
# Disc length: 1759 seconds
#
# Revision: 0
# Processed by: cddbd v1.4b41PL1 Copyright (c) Steve Scherf et al.
# Submitted via: CDmax 1.5
#
DISCID=9606dd0a
DTITLE=Merle Haggard - A Legendary Performer
DYEAR=1900
DGENRE=
TTITLE0=Okie From Muskogee
TTITLE1=Mama Tried
TTITLE2=Today I Started Loving You Again
TTITLE3=Ida Red
TTITLE4=I Think I'll Just Stay Here And Drink
TTITLE5=The Fightin' Side Of Me
TTITLE6=The Bottle Let Me Down
TTITLE7=The Chill Factor
TTITLE8=This Mornin' This Evenin' So Soon
TTITLE9=That's The Way Love Goes
EXTD=
EXTT0=
EXTT1=
EXTT2=
EXTT3=
EXTT4=
EXTT5=
EXTT6=
EXTT7=
EXTT8=
EXTT9=
PLAYORDER=
